<svg xmlns="http://www.w3.org/2000/svg" xmlns:xlink="http://www.w3.org/1999/xlink" width="741.105" height="757.39" viewBox="0 0 741.105 757.39">
  <defs>
    <radialGradient id="radial-gradient" cx="0.5" cy="0.5" r="0.5" gradientUnits="objectBoundingBox">
      <stop offset="0.178"/>
      <stop offset="0.243" stop-color="#232323"/>
      <stop offset="0.359" stop-color="#5d5d5d"/>
      <stop offset="0.475" stop-color="#8e8e8e"/>
      <stop offset="0.589" stop-color="#b7b7b7"/>
      <stop offset="0.7" stop-color="#d6d6d6"/>
      <stop offset="0.807" stop-color="#ececec"/>
      <stop offset="0.909" stop-color="#fafafa"/>
      <stop offset="1" stop-color="#fff"/>
    </radialGradient>
  </defs>
  <g id="Group_251" data-name="Group 251" transform="translate(-136.948 -9971.61)">
    <path id="Path_1783" data-name="Path 1783" d="M817.653,10254.112l-36.2,38.482-34.11-63.907Z"/>
    <g id="Group_247" data-name="Group 247" style="mix-blend-mode: multiply;isolation: isolate">
      <circle id="Ellipse_172" data-name="Ellipse 172" cx="370.552" cy="370.552" r="370.552" transform="translate(136.948 9987.896)" fill="url(#radial-gradient)"/>
    </g>
    <path id="Path_1784" data-name="Path 1784" d="M271.023,10253.916l35.342,48.385L322,10226.837Z"/>
    <circle id="Ellipse_173" data-name="Ellipse 173" cx="256.184" cy="256.184" r="256.184" transform="translate(286.896 10081.789)" fill="#fff"/>
    <g id="Group_248" data-name="Group 248">
      <path id="Path_1785" data-name="Path 1785" d="M552.258,10576.758l-.156-4c5.3-.2,10.658-.589,15.913-1.146l.422,3.977C563.092,10576.161,557.65,10576.553,552.258,10576.758Zm-24.33-.3c-5.387-.34-10.818-.868-16.147-1.569l.523-3.966c5.239.688,10.581,1.208,15.875,1.541Zm64.546-4.654-.821-3.915c5.185-1.09,10.4-2.373,15.491-3.811l1.086,3.849C603.05,10569.388,597.748,10570.691,592.474,10571.8Zm-104.624-1.307c-5.243-1.24-10.51-2.676-15.648-4.267l1.18-3.82c5.056,1.563,10.233,2.975,15.39,4.2Zm143.428-10.369-1.477-3.719c4.916-1.948,9.838-4.1,14.625-6.384l1.726,3.608C641.281,10555.957,636.276,10558.143,631.278,10560.124Zm-181.924-2.272c-4.939-2.105-9.885-4.412-14.7-6.858l1.813-3.567c4.732,2.407,9.592,4.675,14.452,6.746Zm218.186-15.829-2.086-3.414c4.516-2.759,9-5.715,13.326-8.781l2.313,3.262C676.694,10536.211,672.131,10539.215,667.54,10542.022Zm-253.963-3.166c-4.513-2.917-8.994-6.031-13.312-9.255l2.391-3.208c4.251,3.174,8.655,6.234,13.093,9.1Zm286.626-20.831-2.633-3.013c3.981-3.482,7.9-7.149,11.65-10.9l.418-.42,2.829,2.829-.406.409C708.24,10510.754,704.251,10514.483,700.2,10518.025Zm-318.664-3.96q-3.768-3.466-7.427-7.122-2.1-2.1-4.146-4.245l2.9-2.758q2,2.1,4.075,4.174,3.6,3.6,7.306,7.006Zm347.2-25.626-3.1-2.524c3.332-4.1,6.572-8.376,9.627-12.706l3.266,2.306C735.429,10479.918,732.136,10484.266,728.74,10488.439Zm-374.645-4.181c-3.313-4.272-6.513-8.7-9.509-13.159l3.321-2.23c2.946,4.383,6.091,8.736,9.349,12.936Zm397.427-29.316-3.489-1.957c2.6-4.634,5.068-9.4,7.334-14.162l3.61,1.719C756.675,10445.387,754.167,10450.232,751.522,10454.942Zm-419.458-4.7c-2.521-4.732-4.919-9.638-7.135-14.579l3.649-1.638c2.18,4.86,4.541,9.686,7.017,14.337Zm436.215-32.18-3.774-1.336c1.778-5.022,3.4-10.137,4.818-15.2l3.852,1.078C771.733,10407.75,770.085,10412.953,768.279,10418.059Zm-452.141-5.091c-1.688-5.114-3.219-10.354-4.552-15.577l3.876-.988c1.313,5.132,2.817,10.283,4.474,15.312Zm462.4-34.1-3.946-.681c.9-5.235,1.637-10.553,2.184-15.8l3.977.414C780.2,10368.135,779.45,10373.542,778.536,10378.866Zm-471.767-5.326c-.8-5.325-1.422-10.748-1.856-16.117l3.986-.324c.429,5.281,1.043,10.614,1.824,15.852Zm475.267-35.046h-4v-.521c0-5.165-.176-10.357-.508-15.431l3.993-.262c.34,5.16.511,10.438.515,15.69Zm-473.86-5.309-4-.082c.109-5.384.406-10.834.875-16.2l3.985.348C308.574,10322.529,308.285,10327.89,308.176,10333.186Zm466.589-34.407c-.875-5.206-1.941-10.468-3.18-15.637l3.892-.929c1.257,5.256,2.344,10.607,3.235,15.9Zm-462.428-5.218-3.931-.755c1.012-5.268,2.219-10.589,3.591-15.816l3.868,1.015C314.517,10283.144,313.329,10288.378,312.337,10293.561Zm452.508-33.372c-1.766-5.034-3.711-10.039-5.786-14.872l3.681-1.578c2.1,4.917,4.086,10.007,5.88,15.126Zm-441.725-4.976-3.743-1.407c1.891-5.042,3.986-10.082,6.216-14.979l3.642,1.661C327.039,10245.3,324.984,10250.255,323.12,10255.213Zm425.4-31.376c-2.575-4.634-5.341-9.233-8.225-13.673l3.353-2.18c2.934,4.517,5.751,9.194,8.368,13.906Zm-408.262-4.581-3.453-2.023c2.715-4.624,5.63-9.232,8.673-13.7l3.306,2.254C345.793,10210.178,342.921,10214.708,340.256,10219.256Zm386-28.463c-3.333-4.138-6.845-8.205-10.432-12.088l2.939-2.716c3.649,3.95,7.22,8.086,10.611,12.292Zm-363-4.056-3.063-2.578c3.465-4.113,7.122-8.162,10.865-12.04l2.875,2.778C370.251,10178.711,366.661,10182.694,363.254,10186.737Zm335.476-24.778c-3.969-3.518-8.1-6.939-12.288-10.168l2.446-3.169c4.255,3.286,8.459,6.765,12.5,10.344Zm-307.346-3.431-2.586-3.052c4.126-3.494,8.412-6.882,12.733-10.068l2.376,3.22C399.656,10151.761,395.44,10155.094,391.384,10158.528Zm275.406-20.371c-4.5-2.792-9.151-5.46-13.827-7.936l1.867-3.536c4.759,2.517,9.491,5.232,14.07,8.072Zm-242.922-2.719-2.032-3.446c4.638-2.735,9.432-5.345,14.257-7.762l1.789,3.578C433.143,10130.183,428.427,10132.75,423.868,10135.438Zm207.406-15.309c-4.895-1.979-9.935-3.819-14.979-5.47l1.242-3.8c5.13,1.678,10.26,3.55,15.238,5.563Zm-171.477-1.92-1.414-3.744c5.024-1.9,10.193-3.654,15.37-5.221l1.157,3.829C469.823,10114.613,464.736,10116.342,459.8,10118.21Zm133.411-9.815c-5.181-1.125-10.463-2.086-15.7-2.857l.586-3.958c5.318.783,10.69,1.762,15.96,2.905Zm-95.083-1.064-.757-3.926c5.278-1.024,10.67-1.882,16.023-2.548l.492,3.97C508.62,10105.482,503.318,10106.324,498.125,10107.33Zm55.575-4.077c-5.326-.24-10.659-.3-15.953-.177l-.094-4c5.392-.126,10.811-.062,16.226.181Z" fill="#6346f2"/>
    </g>
    <path id="Path_1786" data-name="Path 1786" d="M752.012,10141.6c-108.485-114.7-289.425-119.747-404.129-11.262a284.528,284.528,0,0,0-76.86,123.58l546.63.2A284.482,284.482,0,0,0,752.012,10141.6Z" fill="#00a4c9"/>
    <g id="Group_249" data-name="Group 249">
      <circle id="Ellipse_174" data-name="Ellipse 174" cx="73.202" cy="73.202" r="73.202" transform="translate(467.562 9975.61)" fill="#00a4c9"/>
      <path id="Path_1787" data-name="Path 1787" d="M540.764,10126.014a77.2,77.2,0,1,1,54.589-22.611h0A76.687,76.687,0,0,1,540.764,10126.014Zm0-146.4a69.2,69.2,0,1,0,48.931,118.132h0a69.2,69.2,0,0,0-48.931-118.132Z" fill="#fff"/>
    </g>
    <text id="Years_of_service" data-name="Years of service" transform="translate(343.237 10234.751)" fill="#fff" font-size="48.996" font-family="Montserrat-Bold, Montserrat" font-weight="700"><tspan x="0" y="0">Years of service</tspan></text>
    <text id="_10" data-name="10" transform="translate(508.186 10183.05)" fill="#fff" font-size="63.72" font-family="Montserrat-Bold, Montserrat" font-weight="700"><tspan x="0" y="0">10</tspan></text>
    <text id="what_we_do-integrative_holistic_wellness." data-name="what we do-integrative 
holistic wellness." transform="translate(548.111 10365.974)" fill="#606060" font-size="29" font-family="Montserrat-Bold, Montserrat" font-weight="700"><tspan x="-182" y="0">what we do-integrative </tspan><tspan x="-129" y="34.8">holistic wellness.</tspan></text>
    <g id="Group_250" data-name="Group 250">
      <path id="Path_1788" data-name="Path 1788" d="M540.288,10059.281q-13.566,0-27.131,0c-3.141,0-4.817-1.679-4.821-4.8a24.417,24.417,0,0,1,20.226-23.572,27.532,27.532,0,0,1,4.213-.314c5.118.011,10.235,0,15.353,0a24.218,24.218,0,0,1,24.145,24.16,4.308,4.308,0,0,1-4.589,4.521Q553.986,10059.289,540.288,10059.281Z" fill="#fff"/>
      <path id="Path_1789" data-name="Path 1789" d="M540.282,10026.19a16.571,16.571,0,0,1,.038-33.142,16.571,16.571,0,1,1-.038,33.142Zm.147-6.649a7.67,7.67,0,0,0,5.927-3.015,2.057,2.057,0,0,0-.2-2.956,2.163,2.163,0,0,0-2.875.141c-2.479,2.137-3.45,2.133-5.809-.028a2.141,2.141,0,0,0-3.112,2.936A7.917,7.917,0,0,0,540.429,10019.541Z" fill="#fff"/>
      <path id="Path_1790" data-name="Path 1790" d="M510.662,10092.374a2.494,2.494,0,0,1-1.544-.468c-1.42-.795-2.866-1.544-4.27-2.364a1.752,1.752,0,0,0-1.967.006c-1.481.863-3,1.655-4.5,2.492a2.253,2.253,0,0,1-3.488-2.435c.313-1.866.585-3.739.919-5.6a1.965,1.965,0,0,0-.617-1.891c-1.271-1.281-2.459-2.645-3.749-3.905a2.208,2.208,0,0,1,1.44-3.906c1.658-.22,3.3-.533,4.964-.718a1.8,1.8,0,0,0,1.591-1.16c.766-1.68,1.6-3.33,2.347-5.016a2.234,2.234,0,0,1,4.227-.071c.786,1.671,1.6,3.331,2.355,5.013a1.88,1.88,0,0,0,1.681,1.24c1.661.176,3.308.489,4.965.722a2.223,2.223,0,0,1,2.037,1.433,2.327,2.327,0,0,1-.706,2.519c-1.243,1.248-2.458,2.525-3.713,3.761a2,2,0,0,0-.6,2.019c.374,1.853.7,3.72.94,5.595A2.191,2.191,0,0,1,510.662,10092.374Z" fill="#fff"/>
      <path id="Path_1791" data-name="Path 1791" d="M531.243,10089.854c.28-1.67.53-3.549.93-5.395a2.488,2.488,0,0,0-.808-2.587c-1.238-1.187-2.359-2.5-3.563-3.72a2.186,2.186,0,0,1,1.3-3.82c1.741-.264,3.48-.544,5.227-.757a1.681,1.681,0,0,0,1.486-1.095c.679-1.525,1.429-3.02,2.12-4.539.489-1.075.989-2.112,2.409-2.083,1.4.027,1.905,1.056,2.392,2.13.671,1.48,1.389,2.94,2.067,4.419a1.8,1.8,0,0,0,1.584,1.176c1.661.181,3.308.5,4.965.717a2.222,2.222,0,0,1,2.079,1.376,2.445,2.445,0,0,1-.716,2.649c-1.2,1.167-2.314,2.422-3.536,3.563a2.218,2.218,0,0,0-.723,2.239c.333,1.773.6,3.558.923,5.332a2.315,2.315,0,0,1-.833,2.473,2.419,2.419,0,0,1-2.737.127c-1.511-.811-3.028-1.613-4.5-2.487a1.829,1.829,0,0,0-2.082.015q-2.276,1.332-4.628,2.533C532.854,10093,531.215,10091.971,531.243,10089.854Z" fill="#fff"/>
      <path id="Path_1792" data-name="Path 1792" d="M585.825,10089.631c.02,2.164-1.732,3.266-3.492,2.376-1.492-.753-2.966-1.554-4.389-2.429a2.182,2.182,0,0,0-2.564.024c-1.349.828-2.773,1.533-4.151,2.315a2.343,2.343,0,0,1-2.619.063,2.286,2.286,0,0,1-.91-2.456c.3-1.825.574-3.655.919-5.472a2.012,2.012,0,0,0-.614-2.012c-1.292-1.263-2.493-2.62-3.787-3.881a2.235,2.235,0,0,1-.613-2.416,2.109,2.109,0,0,1,1.907-1.416c1.743-.259,3.482-.551,5.232-.754a1.717,1.717,0,0,0,1.491-1.1c.8-1.717,1.629-3.416,2.406-5.14a2.169,2.169,0,0,1,2-1.468,2.209,2.209,0,0,1,2.169,1.438c.789,1.672,1.594,3.336,2.359,5.02a1.885,1.885,0,0,0,1.665,1.267c1.664.174,3.312.491,4.971.721a2.243,2.243,0,0,1,2.054,1.414,2.3,2.3,0,0,1-.685,2.524c-1.219,1.214-2.41,2.458-3.658,3.64a2.047,2.047,0,0,0-.662,2.118C585.254,10085.945,585.535,10087.909,585.825,10089.631Z" fill="#fff"/>
    </g>
  </g>
</svg>
