<svg xmlns="http://www.w3.org/2000/svg" xmlns:xlink="http://www.w3.org/1999/xlink" width="741.104" height="757.39" viewBox="0 0 741.104 757.39">
  <defs>
    <radialGradient id="radial-gradient" cx="0.5" cy="0.5" r="0.5" gradientUnits="objectBoundingBox">
      <stop offset="0.178"/>
      <stop offset="0.243" stop-color="#232323"/>
      <stop offset="0.359" stop-color="#5d5d5d"/>
      <stop offset="0.475" stop-color="#8e8e8e"/>
      <stop offset="0.589" stop-color="#b7b7b7"/>
      <stop offset="0.7" stop-color="#d6d6d6"/>
      <stop offset="0.807" stop-color="#ececec"/>
      <stop offset="0.909" stop-color="#fafafa"/>
      <stop offset="1" stop-color="#fff"/>
    </radialGradient>
  </defs>
  <g id="Group_256" data-name="Group 256" transform="translate(-998.948 -9979.61)">
    <path id="Path_1793" data-name="Path 1793" d="M1679.653,10262.112l-36.2,38.482-34.11-63.907Z"/>
    <g id="Group_252" data-name="Group 252" style="mix-blend-mode: multiply;isolation: isolate">
      <circle id="Ellipse_175" data-name="Ellipse 175" cx="370.552" cy="370.552" r="370.552" transform="translate(998.948 9995.896)" fill="url(#radial-gradient)"/>
    </g>
    <path id="Path_1794" data-name="Path 1794" d="M1133.023,10261.916l35.342,48.385,15.636-75.464Z"/>
    <circle id="Ellipse_176" data-name="Ellipse 176" cx="256.184" cy="256.184" r="256.184" transform="translate(1148.896 10089.789)" fill="#fff"/>
    <g id="Group_253" data-name="Group 253">
      <path id="Path_1795" data-name="Path 1795" d="M1414.258,10584.758l-.156-4c5.3-.2,10.658-.589,15.913-1.146l.422,3.977C1425.092,10584.161,1419.65,10584.553,1414.258,10584.758Zm-24.33-.3c-5.387-.34-10.818-.868-16.147-1.569l.523-3.966c5.239.688,10.581,1.208,15.875,1.541Zm64.546-4.654-.821-3.915c5.185-1.09,10.4-2.373,15.491-3.811l1.086,3.849C1465.05,10577.388,1459.748,10578.691,1454.474,10579.8Zm-104.624-1.307c-5.243-1.24-10.51-2.676-15.648-4.267l1.18-3.82c5.056,1.563,10.233,2.975,15.39,4.2Zm143.428-10.369-1.477-3.719c4.916-1.948,9.838-4.1,14.625-6.384l1.726,3.608C1503.281,10563.957,1498.276,10566.143,1493.278,10568.124Zm-181.924-2.272c-4.939-2.105-9.885-4.412-14.695-6.858l1.813-3.567c4.732,2.407,9.592,4.675,14.452,6.746Zm218.186-15.829-2.086-3.414c4.516-2.759,9-5.715,13.326-8.781l2.313,3.262C1538.694,10544.211,1534.131,10547.215,1529.54,10550.022Zm-253.963-3.166c-4.513-2.917-8.994-6.031-13.312-9.255l2.391-3.208c4.251,3.174,8.655,6.234,13.093,9.1Zm286.626-20.831-2.633-3.013c3.981-3.482,7.9-7.149,11.65-10.9l.418-.42,2.829,2.829-.406.409C1570.24,10518.754,1566.251,10522.483,1562.2,10526.025Zm-318.664-3.96q-3.768-3.466-7.427-7.122-2.1-2.1-4.146-4.245l2.9-2.758q2,2.1,4.075,4.174,3.6,3.6,7.306,7.006Zm347.2-25.626-3.1-2.524c3.332-4.1,6.572-8.376,9.627-12.706l3.266,2.306C1597.429,10487.918,1594.136,10492.266,1590.74,10496.439Zm-374.645-4.181c-3.313-4.272-6.513-8.7-9.509-13.159l3.321-2.23c2.946,4.383,6.091,8.736,9.349,12.936Zm397.427-29.316-3.489-1.957c2.6-4.634,5.068-9.4,7.334-14.162l3.61,1.719C1618.675,10453.387,1616.167,10458.232,1613.522,10462.942Zm-419.458-4.7c-2.521-4.732-4.919-9.638-7.135-14.579l3.649-1.638c2.18,4.86,4.541,9.686,7.017,14.337Zm436.215-32.18-3.774-1.336c1.778-5.022,3.4-10.137,4.818-15.2l3.852,1.078C1633.733,10415.75,1632.085,10420.953,1630.279,10426.059Zm-452.141-5.091c-1.688-5.114-3.219-10.354-4.552-15.577l3.876-.988c1.313,5.132,2.817,10.283,4.474,15.312Zm462.4-34.1-3.946-.681c.9-5.235,1.637-10.553,2.184-15.8l3.977.414C1642.2,10376.135,1641.45,10381.542,1640.536,10386.866Zm-471.767-5.326c-.8-5.325-1.422-10.748-1.856-16.117l3.986-.324c.429,5.281,1.043,10.614,1.824,15.852Zm475.267-35.046h-4v-.521c0-5.165-.176-10.357-.508-15.431l3.993-.262c.34,5.16.511,10.438.515,15.69Zm-473.86-5.309-4-.082c.109-5.384.406-10.834.875-16.2l3.985.348C1170.574,10330.529,1170.285,10335.89,1170.176,10341.186Zm466.589-34.407c-.875-5.206-1.941-10.468-3.18-15.637l3.892-.929c1.257,5.256,2.344,10.607,3.235,15.9Zm-462.428-5.218-3.931-.755c1.012-5.268,2.219-10.589,3.591-15.816l3.868,1.015C1176.517,10291.144,1175.329,10296.378,1174.337,10301.561Zm452.508-33.372c-1.766-5.034-3.711-10.039-5.786-14.872l3.681-1.578c2.1,4.917,4.086,10.007,5.88,15.126Zm-441.725-4.976-3.743-1.407c1.891-5.042,3.986-10.082,6.216-14.979l3.642,1.661C1189.039,10253.3,1186.984,10258.255,1185.12,10263.213Zm425.4-31.376c-2.575-4.634-5.341-9.233-8.225-13.673l3.353-2.18c2.934,4.517,5.751,9.194,8.368,13.906Zm-408.262-4.581-3.453-2.023c2.715-4.624,5.63-9.232,8.673-13.7l3.306,2.254C1207.793,10218.178,1204.921,10222.708,1202.256,10227.256Zm386-28.463c-3.333-4.138-6.845-8.205-10.432-12.088l2.939-2.716c3.649,3.95,7.22,8.086,10.611,12.292Zm-363-4.056-3.063-2.578c3.465-4.113,7.122-8.162,10.865-12.04l2.875,2.778C1232.251,10186.711,1228.661,10190.694,1225.254,10194.737Zm335.476-24.778c-3.969-3.518-8.1-6.939-12.288-10.168l2.446-3.169c4.255,3.286,8.459,6.765,12.5,10.344Zm-307.346-3.431-2.586-3.052c4.126-3.494,8.412-6.882,12.733-10.068l2.376,3.22C1261.656,10159.761,1257.44,10163.094,1253.384,10166.528Zm275.406-20.371c-4.5-2.792-9.151-5.46-13.827-7.936l1.867-3.536c4.759,2.517,9.491,5.232,14.07,8.072Zm-242.922-2.719-2.032-3.446c4.638-2.735,9.432-5.345,14.257-7.762l1.789,3.578C1295.143,10138.183,1290.427,10140.75,1285.868,10143.438Zm207.406-15.309c-4.9-1.979-9.935-3.819-14.979-5.47l1.242-3.8c5.13,1.678,10.26,3.55,15.238,5.563Zm-171.477-1.92-1.414-3.744c5.024-1.9,10.193-3.654,15.37-5.221l1.157,3.829C1331.823,10122.613,1326.736,10124.342,1321.8,10126.21Zm133.411-9.815c-5.181-1.125-10.463-2.086-15.7-2.857l.586-3.958c5.318.783,10.69,1.762,15.96,2.905Zm-95.083-1.064-.757-3.926c5.278-1.024,10.67-1.882,16.023-2.548l.492,3.97C1370.62,10113.482,1365.318,10114.324,1360.125,10115.33Zm55.575-4.077c-5.326-.24-10.659-.3-15.953-.177l-.094-4c5.392-.126,10.811-.062,16.226.181Z" fill="#6346f2"/>
    </g>
    <path id="Path_1796" data-name="Path 1796" d="M1614.012,10149.6c-108.485-114.7-289.425-119.747-404.129-11.262a284.529,284.529,0,0,0-76.86,123.58l546.63.2A284.482,284.482,0,0,0,1614.012,10149.6Z" fill="#00a4c9"/>
    <g id="Group_254" data-name="Group 254">
      <circle id="Ellipse_177" data-name="Ellipse 177" cx="73.202" cy="73.202" r="73.202" transform="translate(1329.562 9983.61)" fill="#00a4c9"/>
      <path id="Path_1797" data-name="Path 1797" d="M1402.764,10134.014a77.2,77.2,0,1,1,54.589-22.611h0A76.687,76.687,0,0,1,1402.764,10134.014Zm0-146.4a69.2,69.2,0,1,0,48.931,118.132h0a69.2,69.2,0,0,0-48.931-118.132Z" fill="#fff"/>
    </g>
    <text id="Happy_Patient" data-name="Happy Patient" transform="translate(1235.487 10243.751)" fill="#fff" font-size="48.996" font-family="Montserrat-Bold, Montserrat" font-weight="700"><tspan x="0" y="0">Happy Patient</tspan></text>
    <text id="_1000_" data-name="1000+" transform="translate(1325.936 10195.05)" fill="#fff" font-size="63.72" font-family="Montserrat-Bold, Montserrat" font-weight="700"><tspan x="0" y="0">1000+</tspan></text>
    <text id="Experience_Exceptional_care_Excellence" data-name="Experience, Exceptional care, Excellence" transform="translate(1203.53 10345.885)" fill="#606060" font-size="29" font-family="Montserrat-Bold, Montserrat" font-weight="700"><tspan x="17" y="28">Experience, Exceptional </tspan><tspan x="77" y="62.8">care, Excellence</tspan></text>
    <g id="Group_255" data-name="Group 255">
      <path id="Path_1798" data-name="Path 1798" d="M1400.434,10102.527a9.2,9.2,0,0,0-3.232-.529,72.414,72.414,0,0,1-13.849-2.933c-.52-.161-.552-.471-.55-.9q.024-4.613.028-9.226a23.047,23.047,0,0,1,.414-5.79,14.566,14.566,0,0,1,7.508-9.617,15.348,15.348,0,0,1,7.607-1.771c3.144.048,6.288,0,9.432.016a14.937,14.937,0,0,1,14.569,13.97c.21,4.116.04,8.233.116,12.348a.783.783,0,0,1-.543.831,33.949,33.949,0,0,1-9.7,2.833c-1.638.263-3.3.376-4.95.555-.136.015-.236.058-.247.212Z" fill="#fff"/>
      <path id="Path_1799" data-name="Path 1799" d="M1461,10074.982c-1.259.458-2.478,1.01-3.75,1.443a46.107,46.107,0,0,1-11.891,2.145c-.692.047-.83-.185-.821-.827a24.584,24.584,0,0,0-.554-7.2,17.716,17.716,0,0,0-11.2-12.27c-.743-.284-.8-.411-.252-1a13.587,13.587,0,0,0,3.7-8.528c.047-.651.29-.751.857-.747,2.923.024,5.846,0,8.769.014a14.944,14.944,0,0,1,14.756,11.845c.077.342.006.75.382.977Z" fill="#fff"/>
      <path id="Path_1800" data-name="Path 1800" d="M1392.483,10069.658a18.412,18.412,0,0,0-6.821,3.98,17.7,17.7,0,0,0-5.776,13.121c-.013.942-.027,1.887.008,2.828.019.526-.12.712-.682.659a72.384,72.384,0,0,1-13.846-2.519c-.808-.239-1.623-.455-2.438-.673-.365-.1-.614-.24-.606-.692.081-4.4-.2-8.8.145-13.193a14.194,14.194,0,0,1,5.611-10.241,14.741,14.741,0,0,1,9.235-3.182c3.268-.058,6.538,0,9.806-.019.688,0,1.036.114,1.109.956A14.172,14.172,0,0,0,1392.483,10069.658Z" fill="#fff"/>
      <path id="Path_1801" data-name="Path 1801" d="M1371.923,10058.312a18,18,0,0,0-8.752,6.066,16.765,16.765,0,0,0-3.7,9.084c-.125,1.632-.151,3.262-.134,4.895,0,.42-.068.629-.56.6a42.108,42.108,0,0,1-15.3-3.394.9.9,0,0,1-.6-.985c.023-3.738-.06-7.479.028-11.215a15,15,0,0,1,10.582-14.334,13.065,13.065,0,0,1,4.161-.628c3.048,0,6.095,0,9.143-.01.488,0,.811.021.854.666A14.307,14.307,0,0,0,1371.923,10058.312Z" fill="#fff"/>
      <path id="Path_1802" data-name="Path 1802" d="M1412.777,10069.661a15.017,15.017,0,0,0,3.855-6.79,11.653,11.653,0,0,0,.409-2.5c.006-.406.106-.659.585-.643,3.981.133,7.987-.351,11.944.331a14.308,14.308,0,0,1,9.818,6.632,15.3,15.3,0,0,1,2.34,8.673c-.012,3.426-.037,6.852.022,10.276a1.375,1.375,0,0,1-.971,1.488,36.277,36.277,0,0,1-7.98,2.376,60.516,60.516,0,0,1-6.626.809c-.795.047-.86-.218-.842-.861a23.34,23.34,0,0,0-.757-7.825,18.36,18.36,0,0,0-3.6-6.517A19.059,19.059,0,0,0,1412.777,10069.661Z" fill="#fff"/>
      <path id="Path_1803" data-name="Path 1803" d="M1402,10012.084a12.58,12.58,0,1,1-12.555,12.665A12.612,12.612,0,0,1,1402,10012.084Z" fill="#fff"/>
      <path id="Path_1804" data-name="Path 1804" d="M1402.714,10047.712a11.572,11.572,0,1,1-11.68,11.125A11.6,11.6,0,0,1,1402.714,10047.712Z" fill="#fff"/>
      <path id="Path_1805" data-name="Path 1805" d="M1382.391,10058.809a11.639,11.639,0,0,1-11.156-7.822,11.017,11.017,0,0,1,2.808-11.945,10.824,10.824,0,0,1,10.97-2.971c4.655,1.253,7.347,4.408,8.541,8.948a10.42,10.42,0,0,1,.174,2.437c.015.788-.753,1.041-1.191,1.472a13.876,13.876,0,0,0-4.018,7.273,1.631,1.631,0,0,1-.921,1.267A12.1,12.1,0,0,1,1382.391,10058.809Z" fill="#fff"/>
      <path id="Path_1806" data-name="Path 1806" d="M1363.066,10047.445a11.558,11.558,0,0,1-11.808-10.13,11.619,11.619,0,0,1,15.993-12.074,11.371,11.371,0,0,1,7.076,9.97c.057.592-.389.745-.72.986a13.349,13.349,0,0,0-5.606,8.5,2.674,2.674,0,0,1-2.588,2.455A11.746,11.746,0,0,1,1363.066,10047.445Z" fill="#fff"/>
      <path id="Path_1807" data-name="Path 1807" d="M1421.738,10058.815a12.269,12.269,0,0,1-4-.75,1.148,1.148,0,0,1-.831-1,14.27,14.27,0,0,0-4.727-8.625,5.392,5.392,0,0,0-.509-.415c-1.569-1.107-1.561-1.1-1.144-2.955a11.486,11.486,0,0,1,6.784-8.441,10.764,10.764,0,0,1,8.153-.36,11.14,11.14,0,0,1,7.775,8.824c.887,4.612-.721,8.431-4.38,11.377A11.663,11.663,0,0,1,1421.738,10058.815Z" fill="#fff"/>
      <path id="Path_1808" data-name="Path 1808" d="M1441.214,10023.959a11.627,11.627,0,0,1,11.44,10.084c.835,5.146-2.72,10.68-7.646,12.354a11.412,11.412,0,0,1-8.161-.132,1.051,1.051,0,0,1-.758-.937,13.813,13.813,0,0,0-5.817-9.489,1.3,1.3,0,0,1-.655-1.283,11.6,11.6,0,0,1,7.464-9.854A11.347,11.347,0,0,1,1441.214,10023.959Z" fill="#fff"/>
      <path id="Path_1809" data-name="Path 1809" d="M1379.811,10015.247c3.606.063,6.008.9,8.107,2.6a.568.568,0,0,1,.194.793,14.359,14.359,0,0,0-1.063,7.708,13.3,13.3,0,0,0,2.238,6.1c.538.742.624,1.319-.129,1.961a.822.822,0,0,1-1.048.191,12.994,12.994,0,0,0-10.99-.441c-.657.26-.737-.049-.808-.545a13.673,13.673,0,0,0-5.17-8.867q-.219-.179-.452-.339c-1.141-.783-1.155-.788-.624-2.035A11.265,11.265,0,0,1,1379.811,10015.247Z" fill="#fff"/>
      <path id="Path_1810" data-name="Path 1810" d="M1426.983,10034.053a14.963,14.963,0,0,0-9.715-.186c-.119.04-.243.066-.359.113-1.448.573-1.566.536-2.417-.767a.775.775,0,0,1,.042-.95,14.186,14.186,0,0,0,2.243-7.747,12.348,12.348,0,0,0-.865-4.966.987.987,0,0,1,.286-1.3,11.467,11.467,0,0,1,18.292,4.04c.152.351.251.588-.195.837a13.843,13.843,0,0,0-7.181,10.339C1427.084,10033.651,1427.034,10033.83,1426.983,10034.053Z" fill="#fff"/>
      <path id="Path_1811" data-name="Path 1811" d="M1410.673,10038.461a15.516,15.516,0,0,0-2.011,4.089,8.244,8.244,0,0,0-.486,2.672c.024.595-.226.62-.669.438a13.89,13.89,0,0,0-7.583-.654,14.468,14.468,0,0,0-3.37,1.136c-.272.115-.57.284-.589-.206a13.894,13.894,0,0,0-2.577-7.468A137.022,137.022,0,0,1,1410.673,10038.461Z" fill="#fff"/>
    </g>
  </g>
</svg>
